<?xml version="1.0" encoding="UTF-8"?>
<svg version="1.1" xmlns="http://www.w3.org/2000/svg" width="1024" height="1024">
<path d="M0 0 C337.92 0 675.84 0 1024 0 C1024 337.92 1024 675.84 1024 1024 C686.08 1024 348.16 1024 0 1024 C0 686.08 0 348.16 0 0 Z " fill="#FEFDFA" transform="translate(0,0)"/>
<path d="M0 0 C1.40064697 0.31324219 1.40064697 0.31324219 2.82958984 0.6328125 C24.0498738 5.37919475 44.23251511 13.02162486 64 22 C64.93344238 22.42152344 65.86688477 22.84304687 66.82861328 23.27734375 C95.91896852 36.50960252 122.02074523 53.85833905 146.22265625 74.65234375 C148.87729634 76.96138496 148.87729634 76.96138496 151.37109375 78.69140625 C151.90863281 79.12324219 152.44617188 79.55507812 153 80 C153 80.66 153 81.32 153 82 C153.56823486 82.24371338 154.13646973 82.48742676 154.72192383 82.73852539 C157.42081501 84.23302445 159.26424299 86.00510641 161.44921875 88.18359375 C162.29291016 89.02317627 163.13660156 89.86275879 164.00585938 90.7277832 C164.89080078 91.62198975 165.77574219 92.51619629 166.6875 93.4375 C167.59435547 94.35039795 168.50121094 95.2632959 169.43554688 96.20385742 C175.36741123 102.22418505 180.85134061 108.29795001 186 115 C186.94283342 116.14634953 187.88976133 117.28933865 188.83984375 118.4296875 C195.07323057 125.9579756 200.51063633 133.67087635 205.56640625 142.03125 C207.93717833 145.94526953 210.48552835 149.71997797 213.0625 153.5 C232.56266249 182.49386109 246.03649746 215.34701406 255 249 C255.20463867 249.75941895 255.40927734 250.51883789 255.62011719 251.30126953 C269.93572954 305.25338974 268.94093423 365.1022418 255 419 C254.72784668 420.06395996 254.45569336 421.12791992 254.17529297 422.22412109 C242.06895227 468.958417 220.70941044 513.55696468 190 551 C189.56913086 551.52561523 189.13826172 552.05123047 188.69433594 552.59277344 C173.26783231 571.32416425 156.48429069 590.42142688 137 605 C135.78201015 605.93418969 134.5646081 606.86914603 133.34765625 607.8046875 C113.46603344 622.99634914 92.6725917 636.28341805 70.03417969 647.03027344 C68.65296332 647.68872176 67.27610858 648.3563825 65.90332031 649.03222656 C-11.56037168 687.08639557 -104.35846534 690.62168353 -186 665 C-187.57442871 664.50741699 -187.57442871 664.50741699 -189.18066406 664.00488281 C-206.08251329 658.62957407 -222.09536567 651.82742542 -238 644 C-238.8883252 643.5654248 -239.77665039 643.13084961 -240.69189453 642.68310547 C-252.78308083 636.7133301 -263.96008243 629.72689883 -275 622 C-275.63808594 621.55624023 -276.27617187 621.11248047 -276.93359375 620.65527344 C-280.99550585 617.82352817 -285.01355429 614.93694562 -289 612 C-289.82491943 611.39357666 -289.82491943 611.39357666 -290.66650391 610.77490234 C-297.91461316 605.41372391 -304.6820484 599.72357891 -311.24609375 593.54296875 C-313.18860734 591.74924344 -315.12166843 590.05556928 -317.1640625 588.38671875 C-319.37748386 586.52390821 -321.13556164 584.85000214 -322.9375 582.625 C-326.52130571 578.40265429 -330.43020273 574.56684156 -334.375 570.6875 C-340.38099758 564.75122013 -345.80992293 558.667744 -351 552 C-351.56315918 551.31784424 -352.12631836 550.63568848 -352.70654297 549.93286133 C-358.36700957 543.0295623 -363.373746 535.77643714 -368.25 528.3125 C-368.87178635 527.36316589 -368.87178635 527.36316589 -369.50613403 526.39465332 C-376.57621528 515.5605255 -382.92110083 504.50954831 -388.59521484 492.87304688 C-390.07586301 489.84484604 -391.59342977 486.83682017 -393.11328125 483.828125 C-399.91280848 470.21116042 -405.45250748 456.51880437 -410 442 C-410.30244629 441.05366699 -410.60489258 440.10733398 -410.91650391 439.13232422 C-418.79933762 414.28142817 -423.68382366 388.95561129 -426 363 C-426.09498779 361.97245605 -426.18997559 360.94491211 -426.2878418 359.88623047 C-432.68920622 285.1524346 -411.47917203 208.52664978 -370.40087891 146.13427734 C-369.07677077 144.11696237 -367.77589203 142.0865931 -366.48046875 140.05078125 C-360.77296838 131.16925865 -354.38458886 122.98222871 -347.59521484 114.90380859 C-346.11818806 113.1410515 -344.66064414 111.36409725 -343.20703125 109.58203125 C-332.01964194 96.02937623 -319.41094188 83.35182215 -306 72 C-305.38479492 71.47801025 -304.76958984 70.95602051 -304.13574219 70.41821289 C-294.49546241 62.31484449 -284.5392533 54.88947297 -274 48 C-272.88020752 47.26716797 -272.88020752 47.26716797 -271.73779297 46.51953125 C-266.21185549 42.92414813 -260.62311482 39.44092152 -255 36 C-254.33468262 35.58427734 -253.66936523 35.16855469 -252.98388672 34.74023438 C-228.44071462 19.52757584 -199.70028511 9.61421408 -172 2 C-171.09427246 1.74573242 -170.18854492 1.49146484 -169.25537109 1.22949219 C-157.67993393 -1.9678492 -145.91862663 -3.93061001 -134.0625 -5.75 C-133.02011169 -5.91091125 -133.02011169 -5.91091125 -131.95666504 -6.07507324 C-88.20983983 -12.75174298 -42.95947443 -9.98599191 0 0 Z " fill="#FEFDFA" transform="translate(593,176)"/>
<path d="M0 0 C1.40064697 0.31324219 1.40064697 0.31324219 2.82958984 0.6328125 C24.0498738 5.37919475 44.23251511 13.02162486 64 22 C64.93344238 22.42152344 65.86688477 22.84304687 66.82861328 23.27734375 C95.91896852 36.50960252 122.02074523 53.85833905 146.22265625 74.65234375 C148.87729634 76.96138496 148.87729634 76.96138496 151.37109375 78.69140625 C151.90863281 79.12324219 152.44617188 79.55507812 153 80 C153 80.66 153 81.32 153 82 C153.56823486 82.24371338 154.13646973 82.48742676 154.72192383 82.73852539 C157.42081501 84.23302445 159.26424299 86.00510641 161.44921875 88.18359375 C162.29291016 89.02317627 163.13660156 89.86275879 164.00585938 90.7277832 C164.89080078 91.62198975 165.77574219 92.51619629 166.6875 93.4375 C167.59435547 94.35039795 168.50121094 95.2632959 169.43554688 96.20385742 C175.36741123 102.22418505 180.85134061 108.29795001 186 115 C186.94283342 116.14634953 187.88976133 117.28933865 188.83984375 118.4296875 C195.07323057 125.9579756 200.51063633 133.67087635 205.56640625 142.03125 C207.93717833 145.94526953 210.48552835 149.71997797 213.0625 153.5 C232.56266249 182.49386109 246.03649746 215.34701406 255 249 C255.20463867 249.75941895 255.40927734 250.51883789 255.62011719 251.30126953 C269.93572954 305.25338974 268.94093423 365.1022418 255 419 C254.72784668 420.06395996 254.45569336 421.12791992 254.17529297 422.22412109 C242.06895227 468.958417 220.70941044 513.55696468 190 551 C189.56913086 551.52561523 189.13826172 552.05123047 188.69433594 552.59277344 C173.26783231 571.32416425 156.48429069 590.42142688 137 605 C135.78201015 605.93418969 134.5646081 606.86914603 133.34765625 607.8046875 C113.46603344 622.99634914 92.6725917 636.28341805 70.03417969 647.03027344 C68.65296332 647.68872176 67.27610858 648.3563825 65.90332031 649.03222656 C-11.56037168 687.08639557 -104.35846534 690.62168353 -186 665 C-187.57442871 664.50741699 -187.57442871 664.50741699 -189.18066406 664.00488281 C-206.08251329 658.62957407 -222.09536567 651.82742542 -238 644 C-238.8883252 643.5654248 -239.77665039 643.13084961 -240.69189453 642.68310547 C-252.78308083 636.7133301 -263.96008243 629.72689883 -275 622 C-275.63808594 621.55624023 -276.27617187 621.11248047 -276.93359375 620.65527344 C-280.99550585 617.82352817 -285.01355429 614.93694562 -289 612 C-289.82491943 611.39357666 -289.82491943 611.39357666 -290.66650391 610.77490234 C-297.91461316 605.41372391 -304.6820484 599.72357891 -311.24609375 593.54296875 C-313.18860734 591.74924344 -315.12166843 590.05556928 -317.1640625 588.38671875 C-319.37748386 586.52390821 -321.13556164 584.85000214 -322.9375 582.625 C-326.52130571 578.40265429 -330.43020273 574.56684156 -334.375 570.6875 C-340.38099758 564.75122013 -345.80992293 558.667744 -351 552 C-351.56315918 551.31784424 -352.12631836 550.63568848 -352.70654297 549.93286133 C-358.36700957 543.0295623 -363.373746 535.77643714 -368.25 528.3125 C-368.87178635 527.36316589 -368.87178635 527.36316589 -369.50613403 526.39465332 C-376.57621528 515.5605255 -382.92110083 504.50954831 -388.59521484 492.87304688 C-390.07586301 489.84484604 -391.59342977 486.83682017 -393.11328125 483.828125 C-399.91280848 470.21116042 -405.45250748 456.51880437 -410 442 C-410.30244629 441.05366699 -410.60489258 440.10733398 -410.91650391 439.13232422 C-418.79933762 414.28142817 -423.68382366 388.95561129 -426 363 C-426.09498779 361.97245605 -426.18997559 360.94491211 -426.2878418 359.88623047 C-432.68920622 285.1524346 -411.47917203 208.52664978 -370.40087891 146.13427734 C-369.07677077 144.11696237 -367.77589203 142.0865931 -366.48046875 140.05078125 C-360.77296838 131.16925865 -354.38458886 122.98222871 -347.59521484 114.90380859 C-346.11818806 113.1410515 -344.66064414 111.36409725 -343.20703125 109.58203125 C-332.01964194 96.02937623 -319.41094188 83.35182215 -306 72 C-305.38479492 71.47801025 -304.76958984 70.95602051 -304.13574219 70.41821289 C-294.49546241 62.31484449 -284.5392533 54.88947297 -274 48 C-272.88020752 47.26716797 -272.88020752 47.26716797 -271.73779297 46.51953125 C-266.21185549 42.92414813 -260.62311482 39.44092152 -255 36 C-254.33468262 35.58427734 -253.66936523 35.16855469 -252.98388672 34.74023438 C-228.44071462 19.52757584 -199.70028511 9.61421408 -172 2 C-171.09427246 1.74573242 -170.18854492 1.49146484 -169.25537109 1.22949219 C-157.67993393 -1.9678492 -145.91862663 -3.93061001 -134.0625 -5.75 C-133.02011169 -5.91091125 -133.02011169 -5.91091125 -131.95666504 -6.07507324 C-88.20983983 -12.75174298 -42.95947443 -9.98599191 0 0 Z M-171 20 C-171.85609863 20.23444824 -172.71219727 20.46889648 -173.59423828 20.71044922 C-227.38032786 35.57584593 -274.70974733 64.24146153 -313.98754883 103.671875 C-315.68904279 105.37654567 -317.40353735 107.06735611 -319.11914062 108.7578125 C-326.27933508 115.87776135 -332.69447979 123.32997559 -338.77519226 131.38850403 C-340.835542 134.09933381 -342.95448554 136.76363525 -345.0625 139.4375 C-378.97995005 183.61174225 -399.48517884 237.06005956 -407 292 C-407.17877686 293.26263672 -407.35755371 294.52527344 -407.54174805 295.82617188 C-409.14307298 307.95948153 -409.33964747 320.02979221 -409.31567383 332.25634766 C-409.31252391 335.59961928 -409.33603462 338.94199374 -409.36132812 342.28515625 C-409.53595925 402.22550064 -391.18509666 465.5288845 -357 515 C-356.55720703 515.65097656 -356.11441406 516.30195312 -355.65820312 516.97265625 C-346.31743942 530.68269352 -336.10238369 543.6698233 -325 556 C-323.97712891 557.16015625 -323.97712891 557.16015625 -322.93359375 558.34375 C-305.65622814 577.81458985 -285.61078462 594.53450932 -264 609 C-263.36304199 609.42732422 -262.72608398 609.85464844 -262.06982422 610.29492188 C-216.72745557 640.39014145 -163.10248063 658.29376383 -109 663 C-107.74832031 663.11214844 -106.49664062 663.22429688 -105.20703125 663.33984375 C-92.82107913 664.27681215 -80.4126483 664.18782823 -68 664 C-66.67645508 663.98114746 -66.67645508 663.98114746 -65.32617188 663.96191406 C-50.99370327 663.68736717 -37.08062533 661.59753471 -23 659 C-21.83726562 658.78714355 -20.67453125 658.57428711 -19.4765625 658.35498047 C10.33946733 652.7968133 39.0358483 644.19050183 65.94873047 630.06835938 C68.10281727 628.94644985 70.27068591 627.85496943 72.44140625 626.765625 C90.43385678 617.64250561 107.54004054 606.98787562 123 594 C123.56541504 593.52933105 124.13083008 593.05866211 124.71337891 592.57373047 C128.50442434 589.41541062 132.26042192 586.21906924 136 583 C136.72703125 582.37480469 137.4540625 581.74960937 138.203125 581.10546875 C140.14812228 579.41743249 142.07638155 577.712354 144 576 C144.88558594 575.21882812 145.77117188 574.43765625 146.68359375 573.6328125 C151.46784728 569.3613894 156.0116834 565.08841285 160.13671875 560.17578125 C161.99780661 558.00256126 163.93561189 555.91474434 165.89404297 553.8293457 C182.84617304 535.7013622 196.12489839 514.69935001 208 493 C208.66708984 491.7934375 208.66708984 491.7934375 209.34765625 490.5625 C237.78010876 438.95972051 249.54394592 381.59700269 248 323 C247.97897217 321.83114258 247.97897217 321.83114258 247.95751953 320.63867188 C246.65399775 255.32819907 222.24879935 190.88499817 183 139 C182.29085449 138.05979004 182.29085449 138.05979004 181.56738281 137.10058594 C176.33658346 130.21045881 170.89677091 123.58692395 165.03515625 117.21875 C163.2045558 115.22300901 161.44163517 113.18769389 159.6875 111.125 C152.36955431 102.75921913 144.4629557 95.10629106 135.7578125 88.19921875 C132.9054936 85.92463583 130.14506241 83.56130007 127.375 81.1875 C110.73662469 67.31860909 92.02353704 55.31422368 73 45 C71.86433594 44.37867188 70.72867187 43.75734375 69.55859375 43.1171875 C35.93102128 25.22658891 -4.1287094 13.64776271 -42 10 C-43.68851074 9.83516113 -43.68851074 9.83516113 -45.41113281 9.66699219 C-87.75053343 5.73572492 -129.96605187 8.57548731 -171 20 Z " fill="#DA9D28" transform="translate(593,176)"/>
<path d="M0 0 C8.43462352 -0.30221778 19.85058745 0.89572871 26.6484375 6.1640625 C30.64841151 12.75673222 33.04799129 19.92924693 35.3984375 27.2265625 C40.32021801 41.8738191 46.85613986 55.12218296 56.6484375 67.1640625 C57.35742188 68.03675781 58.06640625 68.90945313 58.796875 69.80859375 C75.11145736 88.89951732 98.94114381 95.41908899 122.81069946 99.1897583 C152.18316516 103.86399678 183.72059347 110.4906777 202.88671875 135.48828125 C205.72220768 139.79495512 207.75645178 144.37952169 209.6484375 149.1640625 C205.56073872 147.67762658 202.05043888 145.66633361 198.3359375 143.4140625 C190.75491806 138.98568554 182.9906792 135.85593039 174.6484375 133.1640625 C174.00535645 132.95185059 173.36227539 132.73963867 172.69970703 132.52099609 C160.59066996 128.6379932 148.04944568 126.77868647 135.5234375 124.7890625 C134.65104431 124.64960205 133.77865112 124.5101416 132.87982178 124.36645508 C130.38455116 123.97091134 127.88804094 123.58486542 125.390625 123.203125 C124.62484131 123.08260773 123.85905762 122.96209045 123.07006836 122.83792114 C121.26882112 122.56964642 119.45893786 122.36040763 117.6484375 122.1640625 C117.3184375 122.4940625 116.9884375 122.8240625 116.6484375 123.1640625 C117.14730469 123.54175781 117.64617187 123.91945313 118.16015625 124.30859375 C144.06465563 144.1671597 165.93774264 166.7784618 171.6484375 200.1640625 C171.76522549 202.84084323 171.6938881 205.48247707 171.6484375 208.1640625 C168.88561535 206.78265143 168.42670005 205.09145223 167.0234375 202.3515625 C160.86699379 190.85458931 153.34001258 180.82170892 144.6484375 171.1640625 C143.84148437 170.26042969 143.03453125 169.35679687 142.203125 168.42578125 C128.74036241 154.18226283 111.63157087 143.68285262 95.375 132.9609375 C80.80936692 123.34093508 67.02959581 113.18379528 54.11328125 101.41015625 C52.46951103 99.91226738 50.81578594 98.42523083 49.15234375 96.94921875 C43.09129121 91.56897086 37.32416901 85.94847823 31.6484375 80.1640625 C35.39919754 108.21852785 43.80170151 136.2322746 66.8984375 154.5390625 C72.41762576 158.54915308 78.25939423 161.84059544 84.2109375 165.1640625 C101.80513322 175.02756892 114.92850923 187.12102335 120.8359375 207.05859375 C122.88229061 214.41817823 124.31343946 221.47959537 123.6484375 229.1640625 C120.95086118 226.46648618 119.94497457 223.26073193 118.5234375 219.7890625 C110.04998928 199.90999202 96.73491166 186.49456807 76.765625 178.20703125 C72.78520682 176.8752372 68.75668649 176.00472248 64.6484375 175.1640625 C65.55335938 176.77861328 65.55335938 176.77861328 66.4765625 178.42578125 C76.92797543 197.39622984 82.18314464 216.82032067 76.58203125 238.3671875 C75.36009037 242.02789742 73.80262726 244.96991906 71.6484375 248.1640625 C70.04720866 245.32394413 69.39641939 243.24900792 69.33984375 239.99609375 C69.31688232 239.19349121 69.2939209 238.39088867 69.27026367 237.56396484 C69.24089722 236.28320068 69.24089722 236.28320068 69.2109375 234.9765625 C68.7279168 222.07015535 67.59218855 208.84870621 61.6484375 197.1640625 C61.23980469 196.3596875 60.83117187 195.5553125 60.41015625 194.7265625 C57.14799025 188.8454745 53.06849209 184.22146274 48.4921875 179.328125 C36.80621731 166.56103751 27.26802347 152.15796897 20.6484375 136.1640625 C20.3184375 136.1640625 19.9884375 136.1640625 19.6484375 136.1640625 C10.36799637 181.89708527 10.36799637 181.89708527 25.0949707 224.63769531 C33.30421666 239.05531113 36.02848944 254.91753317 31.8034668 271.02246094 C29.36118136 279.68473904 26.64110589 287.60424192 21.6484375 295.1640625 C20.9884375 295.1640625 20.3284375 295.1640625 19.6484375 295.1640625 C19.70342407 293.53331787 19.70342407 293.53331787 19.75952148 291.86962891 C19.88851222 287.74359283 19.96738975 283.61772393 20.03295898 279.49023438 C20.06765195 277.72137264 20.11502348 275.95270334 20.17651367 274.18457031 C20.80864569 255.50745969 15.36501998 241.78525584 5.8359375 225.8515625 C4.70177531 223.91952297 3.57016364 221.9859834 2.44140625 220.05078125 C1.9518042 219.22795654 1.46220215 218.40513184 0.95776367 217.55737305 C-1.25206388 213.51804068 -2.3515625 210.8277457 -2.3515625 206.1640625 C-3.0115625 206.1640625 -3.6715625 206.1640625 -4.3515625 206.1640625 C-4.58101562 206.94265625 -4.81046875 207.72125 -5.046875 208.5234375 C-6.76884299 213.32844998 -8.99014182 217.83037813 -11.2265625 222.4140625 C-12.96715614 225.9830542 -14.68054395 229.56192658 -16.3515625 233.1640625 C-16.72539062 233.96312012 -17.09921875 234.76217773 -17.484375 235.58544922 C-20.48987515 242.47258645 -21.59328079 249.37571256 -22.6015625 256.7890625 C-22.86066406 258.58150391 -22.86066406 258.58150391 -23.125 260.41015625 C-23.5449871 263.32673337 -23.95357438 266.24441656 -24.3515625 269.1640625 C-25.3415625 268.8340625 -26.3315625 268.5040625 -27.3515625 268.1640625 C-28.265625 265.6875 -28.265625 265.6875 -28.9765625 262.5390625 C-29.21632813 261.51554687 -29.45609375 260.49203125 -29.703125 259.4375 C-34.34403855 236.00927377 -28.30408819 217.43700385 -18.14453125 196.640625 C-2.98633176 165.5100364 3.30338547 133.69437517 2.6484375 99.1640625 C1.99488281 101.02998047 1.99488281 101.02998047 1.328125 102.93359375 C-5.37451241 121.79507722 -14.82390928 135.84394391 -27.81005859 150.86035156 C-44.37625202 170.0679945 -58.98012635 190.02393596 -59.984375 216.23046875 C-60.04671829 217.60971779 -60.04671829 217.60971779 -60.11032104 219.01683044 C-60.23984465 221.91980569 -60.35838873 224.82310537 -60.4765625 227.7265625 C-60.56307311 229.70901632 -60.65030587 231.69143877 -60.73828125 233.67382812 C-60.95105354 238.50358393 -61.15398842 243.33366208 -61.3515625 248.1640625 C-62.0115625 248.1640625 -62.6715625 248.1640625 -63.3515625 248.1640625 C-73.41768908 229.79093826 -76.03589815 206.29018542 -70.2890625 185.7890625 C-69.9796875 184.9228125 -69.6703125 184.0565625 -69.3515625 183.1640625 C-77.41115984 186.12333936 -83.96343087 189.40685745 -90.3515625 195.1640625 C-91.17527344 195.89496094 -91.99898438 196.62585938 -92.84765625 197.37890625 C-102.65963666 206.59350582 -108.46916139 217.82737278 -113.90625 229.94921875 C-115.00290237 232.38852928 -116.12998128 234.78613013 -117.3515625 237.1640625 C-117.6815625 237.1640625 -118.0115625 237.1640625 -118.3515625 237.1640625 C-119.34684047 217.03733013 -112.49666856 199.89896098 -100.3515625 184.1640625 C-99.6915625 184.1640625 -99.0315625 184.1640625 -98.3515625 184.1640625 C-98.14660156 183.62394531 -97.94164062 183.08382812 -97.73046875 182.52734375 C-95.80185434 179.22192812 -93.10484042 176.88604193 -90.2890625 174.3515625 C-89.7005249 173.8153125 -89.1119873 173.2790625 -88.50561523 172.7265625 C-84.73358427 169.32096329 -80.8589266 166.1307992 -76.80078125 163.0703125 C-50.39594228 142.51917786 -26.80061586 115.41745387 -22.3515625 81.1640625 C-23.12242187 81.958125 -23.89328125 82.7521875 -24.6875 83.5703125 C-25.70025567 84.60182291 -26.71329102 85.63305877 -27.7265625 86.6640625 C-28.23445312 87.18871094 -28.74234375 87.71335937 -29.265625 88.25390625 C-30.58988854 89.59559431 -31.96762115 90.88402065 -33.3515625 92.1640625 C-34.0115625 92.1640625 -34.6715625 92.1640625 -35.3515625 92.1640625 C-35.3515625 92.8240625 -35.3515625 93.4840625 -35.3515625 94.1640625 C-38.82143454 97.39055674 -42.6264645 100.2381592 -46.3515625 103.1640625 C-47.3621875 103.96585938 -48.3728125 104.76765625 -49.4140625 105.59375 C-65.73053065 118.36138633 -83.27568828 129.36942219 -100.63330078 140.64648438 C-125.91989116 157.11773067 -145.37151612 175.93018337 -160.57421875 202.1171875 C-161.77170656 204.17002374 -163.0332753 206.18663171 -164.3515625 208.1640625 C-165.55227522 185.97311265 -154.99713297 164.82917385 -140.53735352 148.50732422 C-131.30243893 138.44060962 -120.82525242 129.58300707 -109.3515625 122.1640625 C-163.89385144 127.3224607 -163.89385144 127.3224607 -211.3515625 153.1640625 C-211.6815625 152.5040625 -212.0115625 151.8440625 -212.3515625 151.1640625 C-204.32110134 134.72625934 -190.14242017 123.6886724 -174.0390625 115.9140625 C-173.41314209 115.60895752 -172.78722168 115.30385254 -172.14233398 114.98950195 C-159.77475255 109.30701668 -146.73245275 106.4300581 -133.38876343 104.19631958 C-100.90922823 98.71272967 -65.56734974 92.41605021 -44.9375 63.94140625 C-36.77554571 52.03797885 -31.26817326 38.82840364 -26.2890625 25.3515625 C-18.93396532 5.48758883 -18.93396532 5.48758883 -13.40625 1.90234375 C-9.08092978 0.34818876 -4.54988054 0.31743353 0 0 Z " fill="#0F3D31" transform="translate(507.3515625,472.8359375)"/>
<path d="M0 0 C2.25 1.0625 2.25 1.0625 5.25 3.0625 C5.25 3.7225 5.25 4.3825 5.25 5.0625 C5.80429687 5.29453125 6.35859375 5.5265625 6.9296875 5.765625 C16.94792437 11.36504359 24.05809249 22.71226847 30.25 32.0625 C30.92675781 33.06667969 31.60351562 34.07085937 32.30078125 35.10546875 C44.51418751 54.02523435 53.66519747 75.57136112 56.25 98.0625 C56.41435547 99.26519531 56.41435547 99.26519531 56.58203125 100.4921875 C60.73883835 136.07445627 51.62868027 167.7236542 29.92578125 196.1015625 C27.74781184 198.80026806 25.52133048 201.44204275 23.25 204.0625 C22.52039063 204.91457031 21.79078125 205.76664063 21.0390625 206.64453125 C15.10790857 213.41853336 8.77142079 220.04821947 1.25 225.0625 C-5.36702177 224.68592153 -9.24446446 219.41093877 -13.75 215.0625 C-14.70519531 214.17046875 -15.66039062 213.2784375 -16.64453125 212.359375 C-38.82751193 191.29925913 -56.47466304 162.35471089 -57.92700195 131.2746582 C-58.70696102 81.49089665 -44.26731216 43.48860362 -9.75 7.0625 C-9.06550781 6.29035156 -8.38101563 5.51820313 -7.67578125 4.72265625 C-3.4358886 0.07808838 -3.4358886 0.07808838 0 0 Z " fill="#DA9E2A" transform="translate(512.75,224.9375)"/>
<path d="M0 0 C8.63867564 20.15690982 3.10675439 50.34316018 -4.53515625 70.078125 C-18.7161883 104.88461153 -49.66728907 124.64566472 -82.8359375 139.171875 C-93.43225617 143.5806733 -104.47159398 146.57256992 -115.58300781 149.38134766 C-117.15509382 149.78373815 -118.7226594 150.20437759 -120.28417969 150.64599609 C-123.95205331 151.65995561 -126.36834303 152.12146766 -130 151 C-129.50113281 150.55914062 -129.00226562 150.11828125 -128.48828125 149.6640625 C-105.48430497 128.10557845 -89.2899212 96.39189614 -82 66 C-81.66548828 64.67162109 -81.66548828 64.67162109 -81.32421875 63.31640625 C-80.42503967 59.35589992 -79.93395873 55.42865014 -79.58203125 51.38671875 C-79.50557373 50.54423584 -79.42911621 49.70175293 -79.3503418 48.83374023 C-79.20335824 47.1484456 -79.07253595 45.46164016 -78.96020508 43.77368164 C-78.37887442 36.92884622 -75.94493646 32.36232677 -70.75 27.75 C-52.26580015 12.24933519 -24.53026555 -1.50185299 0 0 Z " fill="#DA9E29" transform="translate(664,305)"/>
<path d="M0 0 C25.49896118 -1.16099823 51.47555593 9.78161195 71 26 C79.7112947 34.04119511 81.03013208 42.70264495 82.81445312 53.93554688 C84.07494456 61.76083129 85.78732821 69.38756479 88 77 C88.21043945 77.73347656 88.42087891 78.46695313 88.63769531 79.22265625 C95.91332943 103.82866347 109.59733774 130.70124088 129 148 C130.00571088 148.99425632 131.0075697 149.99248717 132 151 C94.28641672 146.00009313 58.86226077 131.18381132 31 105 C30.38511719 104.46117187 29.77023437 103.92234375 29.13671875 103.3671875 C16.84487133 92.12085354 8.90579313 74.26839425 3.625 58.75 C3.38628174 58.05422852 3.14756348 57.35845703 2.90161133 56.64160156 C-0.75489653 45.2951866 -1.30052079 34.11762801 -1.20581055 22.3059082 C-1.18728904 19.91021308 -1.18530333 17.51490067 -1.18554688 15.11914062 C-1.18063953 13.58853832 -1.17481466 12.05793861 -1.16796875 10.52734375 C-1.16629951 9.4586631 -1.16629951 9.4586631 -1.16459656 8.36839294 C-1.13508587 5.3073174 -0.97583057 2.92749172 0 0 Z " fill="#DA9E2A" transform="translate(359,306)"/>
<path d="M0 0 C0.76884521 0.3206543 1.53769043 0.64130859 2.32983398 0.97167969 C7.52890705 3.28875537 7.52890705 3.28875537 8.57397461 5.7644043 C8.75 7.8125 8.75 7.8125 6.86328125 10.4765625 C5.94538906 11.47816077 5.01044868 12.46429988 4.0625 13.4375 C3.56137695 13.96384033 3.06025391 14.49018066 2.54394531 15.0324707 C-17.54968965 35.74739736 -48.59821149 53.14572801 -78.1171875 54.078125 C-79.78644064 54.08740876 -81.45583124 54.08168034 -83.125 54.0625 C-84.49434692 54.04799805 -84.49434692 54.04799805 -85.89135742 54.03320312 C-88.67895954 53.98512859 -91.46360876 53.90700506 -94.25 53.8125 C-95.04132324 53.78736328 -95.83264648 53.76222656 -96.64794922 53.73632812 C-121.30880347 52.70374376 -151.46577791 45.40059258 -173.25 33.8125 C-173.25 33.1525 -173.25 32.4925 -173.25 31.8125 C-172.07566406 31.65394531 -170.90132812 31.49539063 -169.69140625 31.33203125 C-136.48957116 26.62467159 -108.58801863 11.9376532 -80.88305664 -6.4675293 C-55.0529504 -23.3595445 -26.06550388 -11.17355807 0 0 Z " fill="#DA9E29" transform="translate(715.25,436.1875)"/>
<path d="M0 0 C1.14202881 -0.00447144 1.14202881 -0.00447144 2.30712891 -0.0090332 C12.30695909 0.38701066 20.43944493 5.4437262 28.625 10.75 C58.07104379 29.34986425 86.36414929 41.28738862 120.875 46.75 C118.74390333 48.88109667 117.63257688 49.32100484 114.82421875 50.23046875 C113.99124268 50.5039917 113.1582666 50.77751465 112.30004883 51.05932617 C111.39665771 51.34912354 110.4932666 51.6389209 109.5625 51.9375 C107.64306803 52.56200497 105.72380171 53.18701924 103.8046875 53.8125 C102.81952148 54.1321875 101.83435547 54.451875 100.81933594 54.78125 C98.0181451 55.70290218 95.23051357 56.65623441 92.4453125 57.625 C81.38217442 61.45517701 70.38890995 64.603818 58.875 66.75 C57.976604 66.92805176 57.07820801 67.10610352 56.15258789 67.28955078 C48.53431418 68.70343213 41.17530728 69.05302895 33.4375 69 C32.31279297 69.00773437 31.18808594 69.01546875 30.02929688 69.0234375 C-4.21198924 68.94476711 -35.05376113 51.07599927 -59.125 27.75 C-59.91648437 27.08742188 -60.70796875 26.42484375 -61.5234375 25.7421875 C-63.125 23.75 -63.125 23.75 -63.10546875 21.15625 C-61.30475076 16.73695804 -57.30216881 15.60456935 -53.125 13.75 C-48.53851468 11.82472751 -43.85917436 10.26403637 -39.125 8.75 C-38.11872559 8.42 -37.11245117 8.09 -36.07568359 7.75 C-12.19840882 0.01535134 -12.19840882 0.01535134 0 0 Z " fill="#DA9E29" transform="translate(364.125,421.25)"/>
<path d="M0 0 C0.33 1.32 0.66 2.64 1 4 C1.66 3.34 2.32 2.68 3 2 C4.32 2.99 5.64 3.98 7 5 C5.53543172 8.96898003 3.65225783 12.4862251 1.5 16.125 C0.8915625 17.15882813 0.283125 18.19265625 -0.34375 19.2578125 C-1.51690331 21.20015596 -2.74130876 23.11196314 -4 25 C-4.4531053 16.6259427 -3.37527749 9.04886778 -1 1 C-0.67 0.67 -0.34 0.34 0 0 Z " fill="#10392C" transform="translate(347,656)"/>
<path d="M0 0 C1.40494295 4.21482884 -0.44689182 6.67380691 -2.3125 10.4375 C-2.79493164 11.44006836 -2.79493164 11.44006836 -3.28710938 12.46289062 C-4.82851907 15.65648895 -6.40441986 18.8331379 -8 22 C-8.33 22 -8.66 22 -9 22 C-9.05406122 20.06280622 -9.09282025 18.12518079 -9.125 16.1875 C-9.14820313 15.10855469 -9.17140625 14.02960937 -9.1953125 12.91796875 C-9 10 -9 10 -7 7 C-6.60986284 5.0103005 -6.26797351 3.00980131 -6 1 C-5.67 1 -5.34 1 -5 1 C-5 2.65 -5 4.3 -5 6 C-4.01 6 -3.02 6 -2 6 C-1.34 4.02 -0.68 2.04 0 0 Z " fill="#0B2F22" transform="translate(398,688)"/>
<path d="M0 0 C0 3 0 3 -1 6 C1.64 5.34 4.28 4.68 7 4 C4.19777832 7.12594404 0.76095908 9.34493896 -2.6875 11.6875 C-3.29400391 12.10322266 -3.90050781 12.51894531 -4.52539062 12.94726562 C-6.01497948 13.96769264 -7.50722877 14.98423413 -9 16 C-9.33 15.34 -9.66 14.68 -10 14 C-8.671875 11.50390625 -8.671875 11.50390625 -6.75 8.5625 C-5.81414062 7.11037109 -5.81414062 7.11037109 -4.859375 5.62890625 C-3.3513529 3.49676577 -1.92088684 1.74895561 0 0 Z " fill="#0A251A" transform="translate(305,610)"/>
<path d="M0 0 C0.33 0 0.66 0 1 0 C1.11269443 6.1105424 0.89604368 11.95170514 0 18 C-0.99 17.67 -1.98 17.34 -3 17 C-3.33 14.36 -3.66 11.72 -4 9 C-3.67 9.66 -3.34 10.32 -3 11 C-2.34 11 -1.68 11 -1 11 C-1 9.35 -1 7.7 -1 6 C-1.66 6 -2.32 6 -3 6 C-2.42655063 3.13275314 -2.1385485 2.1385485 0 0 Z " fill="#123024" transform="translate(483,724)"/>
<path d="M0 0 C0.33 0 0.66 0 1 0 C1.1698931 2.81233755 1.33598232 5.62481849 1.5 8.4375 C1.54769531 9.22060547 1.59539063 10.00371094 1.64453125 10.81054688 C1.95598998 16.21658047 2.04336368 21.58496055 2 27 C1.01 27 0.02 27 -1 27 C-0.67 18.09 -0.34 9.18 0 0 Z " fill="#DBA135" transform="translate(840,520)"/>
<path d="M0 0 C0.43570312 0.37511719 0.87140625 0.75023437 1.3203125 1.13671875 C5.18607599 4.45859777 9.07657648 7.74642927 13 11 C10.01316063 12.49341969 8.04839022 11.40648676 4.875 10.5625 C3.23144531 10.13130859 3.23144531 10.13130859 1.5546875 9.69140625 C0.71164062 9.46324219 -0.13140625 9.23507812 -1 9 C1.49064888 8.31292445 3.37886292 8 6 8 C5.566875 7.59007812 5.13375 7.18015625 4.6875 6.7578125 C4.130625 6.21898437 3.57375 5.68015625 3 5.125 C2.443125 4.59132813 1.88625 4.05765625 1.3125 3.5078125 C0 2 0 2 0 0 Z " fill="#D7921C" transform="translate(478,445)"/>
<path d="M0 0 C1.58294782 -0.05437607 3.16644256 -0.09296271 4.75 -0.125 C5.63171875 -0.14820313 6.5134375 -0.17140625 7.421875 -0.1953125 C10 0 10 0 14 2 C8.72 3.65 3.44 5.3 -2 7 C-2 6.34 -2 5.68 -2 5 C0.31 4.01 2.62 3.02 5 2 C3.35 1.67 1.7 1.34 0 1 C0 0.67 0 0.34 0 0 Z " fill="#D38C12" transform="translate(471,467)"/>
<path d="M0 0 C0.33 0 0.66 0 1 0 C0.98839844 0.68707031 0.97679687 1.37414062 0.96484375 2.08203125 C0.95582031 2.98308594 0.94679688 3.88414062 0.9375 4.8125 C0.92589844 5.70582031 0.91429687 6.59914063 0.90234375 7.51953125 C0.88990033 10.13413791 0.88990033 10.13413791 2 13 C0.5625 16.1875 0.5625 16.1875 -1 19 C-1.33 19 -1.66 19 -2 19 C-2.22262303 12.2718373 -1.95021536 6.46008837 0 0 Z " fill="#132920" transform="translate(345,662)"/>
<path d="M0 0 C0.99 0 1.98 0 3 0 C3.05429959 1.74965358 3.09292823 3.49979787 3.125 5.25 C3.14820313 6.22453125 3.17140625 7.1990625 3.1953125 8.203125 C2.99862781 11.0196498 2.44568916 12.60949036 1 15 C0.67 15 0.34 15 0 15 C0 10.05 0 5.1 0 0 Z " fill="#20463A" transform="translate(476,707)"/>
<path d="M0 0 C0.99 0.33 1.98 0.66 3 1 C-3.28773585 7.72641509 -3.28773585 7.72641509 -8 9 C-8.99 9 -9.98 9 -11 9 C-9.23977508 7.46690087 -7.46646537 5.94881299 -5.6875 4.4375 C-4.70136719 3.59058594 -3.71523438 2.74367188 -2.69921875 1.87109375 C-1.80847656 1.25363281 -0.91773438 0.63617187 0 0 Z " fill="#0B2C20" transform="translate(436,632)"/>
<path d="M0 0 C3.73997229 5.60995843 3.11406407 11.47300069 3 18 C0.03875445 15.03875445 0.04042342 12.1981502 -0.09765625 8.10546875 C-0.08605469 7.14253906 -0.07445312 6.17960938 -0.0625 5.1875 C-0.05347656 4.21167969 -0.04445313 3.23585938 -0.03515625 2.23046875 C-0.02355469 1.49441406 -0.01195312 0.75835938 0 0 Z " fill="#10271D" transform="translate(628,684)"/>
<path d="M0 0 C1.32 0.33 2.64 0.66 4 1 C4 1.99 4 2.98 4 4 C2.25 5.38671875 2.25 5.38671875 0 6.6875 C-0.7425 7.12449219 -1.485 7.56148437 -2.25 8.01171875 C-2.8275 8.33785156 -3.405 8.66398438 -4 9 C-2.80100302 5.9168649 -1.52299523 2.93720508 0 0 Z " fill="#153126" transform="translate(299,617)"/>
<path d="M0 0 C0.33 0.66 0.66 1.32 1 2 C0.071875 3.3303125 0.071875 3.3303125 -0.875 4.6875 C-3.02931377 7.78752024 -3.02931377 7.78752024 -4 10.6875 C-5.18231499 13.42160342 -6.51575183 14.42664283 -9 16 C-7.56691865 12.04093183 -5.66858051 8.71281819 -3.375 5.1875 C-2.74335938 4.21167969 -2.11171875 3.23585938 -1.4609375 2.23046875 C-0.73777344 1.12638672 -0.73777344 1.12638672 0 0 Z " fill="#D6931B" transform="translate(223,322)"/>
<path d="M0 0 C2.475 0.99 2.475 0.99 5 2 C5.33 1.34 5.66 0.68 6 0 C7.25 6.625 7.25 6.625 5 10 C4.16121545 8.71186658 3.32913217 7.41936744 2.5 6.125 C2.0359375 5.40570312 1.571875 4.68640625 1.09375 3.9453125 C0 2 0 2 0 0 Z " fill="#0B3124" transform="translate(668,662)"/>
<path d="M0 0 C0.33 0.66 0.66 1.32 1 2 C0.34 2 -0.32 2 -1 2 C-1.33 2.99 -1.66 3.98 -2 5 C-4.28515625 5.94921875 -4.28515625 5.94921875 -7.0625 6.6875 C-8.44115234 7.06455078 -8.44115234 7.06455078 -9.84765625 7.44921875 C-10.55792969 7.63097656 -11.26820313 7.81273437 -12 8 C-9.69716746 5.45868642 -7.32686207 3.92889705 -4.3125 2.3125 C-3.50425781 1.87550781 -2.69601562 1.43851562 -1.86328125 0.98828125 C-1.24839844 0.66214844 -0.63351562 0.33601563 0 0 Z " fill="#D59015" transform="translate(615,442)"/>
<path d="M0 0 C0 4.3417799 -2.21168144 6.79303871 -5 10 C-7.3125 11.4375 -7.3125 11.4375 -9 12 C-7.55575365 8.76138697 -5.74227753 6.38030837 -3.375 3.75 C-2.74335938 3.04359375 -2.11171875 2.3371875 -1.4609375 1.609375 C-0.97882813 1.07828125 -0.49671875 0.5471875 0 0 Z " fill="#D69116" transform="translate(253,282)"/>
<path d="M0 0 C0.66 0.99 1.32 1.98 2 3 C1.113125 3.5775 0.22625 4.155 -0.6875 4.75 C-3.59042244 6.68068476 -6.30768649 8.78280064 -9 11 C-7.59155282 7.78475695 -5.89655214 5.67816132 -3.375 3.25 C-2.74335938 2.63640625 -2.11171875 2.0228125 -1.4609375 1.390625 C-0.73777344 0.70226562 -0.73777344 0.70226562 0 0 Z " fill="#D69013" transform="translate(266,268)"/>
<path d="M0 0 C0.66 0.33 1.32 0.66 2 1 C0.40629329 2.36646148 -1.20032982 3.71787166 -2.8125 5.0625 C-4.15248047 6.19365234 -4.15248047 6.19365234 -5.51953125 7.34765625 C-6.74736328 8.16556641 -6.74736328 8.16556641 -8 9 C-8.99 8.67 -9.98 8.34 -11 8 C-7.37 5.36 -3.74 2.72 0 0 Z " fill="#D48F12" transform="translate(319,224)"/>
<path d="M0 0 C2.67927341 4.01891012 2.15601248 6.24161923 2 11 C1.34 10.67 0.68 10.34 0 10 C-1.11421833 6.35346727 -0.94296589 3.66708957 0 0 Z " fill="#1F342A" transform="translate(677,670)"/>
<path d="M0 0 C2.97 0 5.94 0 9 0 C8.01 0.66 7.02 1.32 6 2 C6.33 2.66 6.66 3.32 7 4 C2.25 3.125 2.25 3.125 0 2 C0 1.34 0 0.68 0 0 Z " fill="#D5901A" transform="translate(542,468)"/>
<path d="M0 0 C0 3 0 3 -1.53125 4.60546875 C-2.1809375 5.12753906 -2.830625 5.64960938 -3.5 6.1875 C-4.1496875 6.71730469 -4.799375 7.24710937 -5.46875 7.79296875 C-5.9740625 8.19128906 -6.479375 8.58960938 -7 9 C-7.66 8.67 -8.32 8.34 -9 8 C-7.87811441 6.85111717 -6.75238316 5.70598863 -5.625 4.5625 C-4.99851562 3.92441406 -4.37203125 3.28632813 -3.7265625 2.62890625 C-2 1 -2 1 0 0 Z " fill="#D58F13" transform="translate(281,254)"/>
<path d="M0 0 C0.33 0.66 0.66 1.32 1 2 C-0.59617578 5.83082186 -1.49984971 7.66656647 -5 10 C-3.66511872 6.40608886 -2.03977277 3.24509304 0 0 Z " fill="#D59115" transform="translate(796,677)"/>
</svg>
